<svg width="28" height="22" viewBox="0 0 28 22" fill="none" xmlns="http://www.w3.org/2000/svg">
<path d="M23.7043 1.82325C21.919 0.978916 20.0061 0.357218 18.0048 0.00156259C17.9681 -0.0054385 17.9314 0.0113651 17.9138 0.0463706C17.6678 0.497241 17.3948 1.08673 17.2046 1.5488C15.0525 1.21695 12.9113 1.21695 10.8027 1.5488C10.6111 1.07553 10.3285 0.497241 10.0813 0.0463706C10.0622 0.0127654 10.0256 -0.00403828 9.99024 0.00156259C7.99033 0.357218 6.07602 0.978916 4.29078 1.82325C4.27583 1.83025 4.26224 1.84145 4.25273 1.85685C0.622468 7.44652 -0.372077 12.899 0.115672 18.2842C0.118389 18.3108 0.131978 18.336 0.152358 18.3514C2.54763 20.1647 4.8682 21.2653 7.14527 21.9948C7.18195 22.006 7.21999 21.992 7.24308 21.9612C7.7811 21.2037 8.26206 20.4041 8.67373 19.5626C8.69818 19.5136 8.67371 19.4548 8.6248 19.4352C7.86261 19.1369 7.13845 18.7743 6.44011 18.3626C6.38441 18.329 6.38036 18.2478 6.43062 18.2086C6.57736 18.0952 6.72408 17.9776 6.86402 17.8585C6.88983 17.8361 6.92515 17.8319 6.95504 17.8459C11.5377 20.0023 16.4994 20.0023 21.0278 17.8459C21.0577 17.8305 21.093 17.8361 21.1188 17.8571C21.2587 17.9762 21.4054 18.0952 21.5535 18.2086C21.6038 18.2478 21.6011 18.329 21.5454 18.3626C20.8484 18.7827 20.1229 19.1383 19.3594 19.4352C19.3091 19.4548 19.2873 19.5136 19.3118 19.564C19.733 20.4027 20.2126 21.2023 20.7411 21.9612C20.7628 21.9934 20.8022 22.0074 20.8389 21.9962C23.1268 21.2667 25.4474 20.1661 27.8426 18.3528C27.863 18.3374 27.8766 18.3122 27.8793 18.287C28.4635 12.0616 26.9011 6.654 23.7396 1.85965C23.7314 1.84425 23.7192 1.83165 23.7029 1.82465L23.7043 1.82325ZM9.35573 15.0049C7.97536 15.0049 6.83957 13.6999 6.83957 12.0966C6.83957 10.4934 7.95498 9.18839 9.35573 9.18839C10.7565 9.18839 11.895 10.506 11.8719 12.0966C11.8719 13.6999 10.7565 15.0049 9.35573 15.0049ZM18.661 15.0049C17.2806 15.0049 16.1448 13.6999 16.1448 12.0966C16.1448 10.4934 17.2603 9.18839 18.661 9.18839C20.0618 9.18839 21.2003 10.506 21.1772 12.0966C21.1772 13.6999 20.074 15.0049 18.661 15.0049Z" fill="white"/>
</svg>
