<svg width="29" height="28" viewBox="0 0 29 28" fill="none" xmlns="http://www.w3.org/2000/svg">
<path d="M21.2587 0.0144043H7.09585C3.18311 0.0144043 0 3.19845 0 7.11235V20.0731C0 23.987 3.18311 27.1711 7.09585 27.1711H21.2587C25.1714 27.1711 28.3546 23.987 28.3546 20.0731V7.11235C28.3546 3.19845 25.1714 0.0144043 21.2587 0.0144043ZM2.5032 7.11235C2.5032 4.57955 4.5638 2.51833 7.09585 2.51833H21.2587C23.7908 2.51833 25.8514 4.57955 25.8514 7.11235V20.0731C25.8514 22.6059 23.7908 24.6671 21.2587 24.6671H7.09585C4.5638 24.6671 2.5032 22.6059 2.5032 20.0731V7.11235Z" fill="white"/>
<path d="M14.1773 20.1934C17.8158 20.1934 20.7777 17.2323 20.7777 13.5911C20.7777 9.94985 17.8174 6.98877 14.1773 6.98877C10.5372 6.98877 7.57696 9.94985 7.57696 13.5911C7.57696 17.2323 10.5372 20.1934 14.1773 20.1934ZM14.1773 9.4943C16.4368 9.4943 18.2745 11.3325 18.2745 13.5927C18.2745 15.8528 16.4368 17.691 14.1773 17.691C11.9179 17.691 10.0802 15.8528 10.0802 13.5927C10.0802 11.3325 11.9179 9.4943 14.1773 9.4943Z" fill="white"/>
<path d="M21.3886 8.05548C22.3684 8.05548 23.167 7.25826 23.167 6.27658C23.167 5.2949 22.37 4.49768 21.3886 4.49768C20.4072 4.49768 19.6103 5.2949 19.6103 6.27658C19.6103 7.25826 20.4072 8.05548 21.3886 8.05548Z" fill="white"/>
</svg>
