<svg width="33" height="30" viewBox="0 0 33 30" fill="none" xmlns="http://www.w3.org/2000/svg">
<path d="M32.9004 14.3309C32.4608 12.3189 30.6393 11.0144 28.8326 11.4168C28.2168 11.5534 27.6862 11.8735 27.267 12.3114C24.8352 10.5297 21.5149 9.35243 17.807 9.12971L19.5821 1.67323L24.8482 2.94406C24.9354 4.39642 26.1281 5.54745 27.5898 5.54745C29.0514 5.54745 30.3388 4.30471 30.3388 2.77373C30.3388 1.24276 29.1071 0 27.5898 0C26.4898 0 25.542 0.653196 25.1042 1.59649L19.3911 0.217113C18.9422 0.10856 18.4914 0.387421 18.382 0.84035L16.4176 9.09228C12.2812 9.11474 8.54908 10.3219 5.87058 12.2553C5.73889 12.1318 5.59793 12.0176 5.44397 11.9165C3.88398 10.9115 1.72856 11.5048 0.63045 13.2397C-0.46766 14.9766 -0.0948216 17.1982 1.46516 18.2033C1.55791 18.2631 1.65251 18.3155 1.74897 18.3642C1.6859 18.7516 1.65251 19.1466 1.65251 19.5452C1.65251 25.3191 8.31353 30 16.5308 30C24.7481 30 31.4091 25.3191 31.4091 19.5452C31.4091 19.1409 31.3738 18.7423 31.3089 18.3511C32.5758 17.6081 33.2658 15.9892 32.9041 14.3309H32.9004ZM8.90153 17.1233C8.90153 15.8076 9.95883 14.7408 11.2628 14.7408C12.5668 14.7408 13.6242 15.8076 13.6242 17.1233C13.6242 18.4391 12.5668 19.5059 11.2628 19.5059C9.95883 19.5059 8.90153 18.4391 8.90153 17.1233ZM22.0158 24.6453C21.2905 25.3098 19.2872 26.8594 16.3546 26.8875C16.3286 26.8875 16.3008 26.8875 16.2748 26.8875C13.3032 26.8875 11.274 25.3229 10.5338 24.6453C10.2964 24.4282 10.2797 24.0576 10.4949 23.82C10.7101 23.5804 11.0773 23.5635 11.3129 23.7807C11.9566 24.3721 13.7354 25.744 16.3435 25.7196C18.8791 25.6953 20.6097 24.3571 21.2367 23.7825C21.4741 23.5654 21.8396 23.5823 22.0547 23.8218C22.2699 24.0614 22.2532 24.4301 22.0158 24.6472V24.6453ZM21.7301 19.5059C20.4261 19.5059 19.3688 18.4391 19.3688 17.1233C19.3688 15.8076 20.4261 14.7408 21.7301 14.7408C23.0341 14.7408 24.0914 15.8076 24.0914 17.1233C24.0914 18.4391 23.0341 19.5059 21.7301 19.5059Z" fill="white"/>
</svg>
