<svg width="24" height="27" viewBox="0 0 24 27" fill="none" xmlns="http://www.w3.org/2000/svg">
<path d="M24 6.53761V11.1913C23.1656 11.1119 22.0813 10.9271 20.882 10.4989C19.3159 9.93938 18.1501 9.1744 17.3866 8.58212V17.9879L17.3671 17.9586C17.3795 18.145 17.3866 18.335 17.3866 18.5267C17.3866 23.1976 13.4873 27 8.69329 27C3.89931 27 0 23.1976 0 18.5267C0 13.8557 3.89931 10.0516 8.69329 10.0516C9.16277 10.0516 9.62339 10.0879 10.0734 10.1587V14.745C9.64111 14.5948 9.17694 14.5136 8.69329 14.5136C6.42386 14.5136 4.57607 16.3129 4.57607 18.5267C4.57607 20.7404 6.42386 22.5397 8.69329 22.5397C10.9627 22.5397 12.8105 20.7387 12.8105 18.5267C12.8105 18.4438 12.8087 18.3609 12.8034 18.278V0H17.5744C17.5921 0.393707 17.608 0.790875 17.6258 1.18458C17.6576 1.95991 17.9411 2.70414 18.4354 3.3137C19.0147 4.03031 19.8704 4.86263 21.0715 5.52744C22.1965 6.14735 23.2524 6.415 24 6.54106V6.53761Z" fill="white"/>
</svg>
