<svg width="35" height="24" viewBox="0 0 35 24" fill="none" xmlns="http://www.w3.org/2000/svg">
<path d="M34.7017 6.43374C34.4867 4.39301 34.0241 2.13708 32.3215 0.95153C31.0028 0.0321639 29.2695 -0.00182421 27.6513 6.36019e-05C24.2307 6.36019e-05 20.8082 0.00573442 17.3877 0.00762223C14.0976 0.0113979 10.8075 0.0132834 7.51749 0.017059C6.14312 0.017059 4.80713 -0.0867731 3.53065 0.498449C2.4346 1.00061 1.57658 1.95585 1.06023 3.01869C0.344249 4.49685 0.194534 6.17134 0.108156 7.80618C-0.0511643 10.7833 -0.0338886 13.7679 0.156144 16.7431C0.296269 18.9141 0.651374 21.3135 2.35783 22.6973C3.87041 23.9225 6.00491 23.9829 7.96665 23.9848C14.1936 23.9904 20.4224 23.9961 26.6513 23.9999C27.4498 24.0017 28.2829 23.9866 29.0967 23.8998C30.6976 23.7299 32.2236 23.2787 33.2525 22.112C34.2909 20.9359 34.5578 19.2992 34.7152 17.7493C35.0991 13.9888 35.0952 10.1924 34.7017 6.43374ZM13.7866 17.2717V6.72824L23.0695 11.999L13.7866 17.2717Z" fill="white"/>
</svg>
