<svg width="207" height="57" viewBox="0 0 207 57" fill="none" xmlns="http://www.w3.org/2000/svg">
<g clip-path="url(#clip0_12_805)">
<path d="M196.624 18.7374L187.892 32.2493L187.028 18.7374H174.434C175.589 14.7716 176.52 11.5896 176.52 11.5896L177.012 10.0007H167.376L166.92 11.5896L164.833 18.7374H154.569C146.132 18.7374 141.382 21.13 139.422 25.6558C138.286 21.5176 134.526 18.7374 128.754 18.7374C124.064 18.7186 119.531 20.42 116.016 23.5183C114.317 20.5985 110.949 18.7403 106.247 18.7403C101.234 18.7186 96.4136 20.6614 92.8216 24.151C91.2541 20.8849 87.748 18.736 82.7114 18.736C81.0454 18.7403 79.3852 18.9569 77.7734 19.3801L78.53 16.7766C78.543 16.7353 78.5597 16.6952 78.58 16.6569L80.5187 9.9751H70.9196L64.8009 30.971C64.6411 31.3919 64.4983 31.818 64.3727 32.2493C64.1014 33.167 63.9187 34.1089 63.8273 35.0608C63.0279 40.9175 65.6118 45.3379 72.7754 45.6386C73.4635 45.7203 74.154 45.7606 74.8469 45.7597C79.8038 45.7045 84.553 43.7644 88.1263 40.3347C89.6067 43.6265 93.05 45.7597 98.3735 45.7597C103.004 45.7133 107.466 44.0162 110.953 40.9745C112.581 43.8958 115.917 45.7597 120.878 45.7597H144.943C152.402 45.7597 156.616 44.2962 158.809 41.117C158.809 44.1494 160.551 45.7597 164.962 45.7597C168.527 45.7597 173.293 44.9802 179.844 43.3742L170.31 56.8875H179.909L206.226 18.7374H196.624ZM83.5737 32.2478C82.6758 35.3258 79.7877 37.8082 77.1353 37.8082C74.4857 37.8082 73.0624 35.3258 73.9589 32.2478C74.8554 29.1698 77.7463 26.6846 80.3773 26.6846C83.0084 26.6846 84.4717 29.1599 83.5737 32.2478ZM107.107 32.2478C106.211 35.3258 103.321 37.8082 100.67 37.8082C98.0194 37.8082 96.6304 35.3258 97.5084 32.2478C98.3863 29.1698 101.296 26.6846 103.947 26.6846C106.598 26.6846 107.99 29.1599 107.107 32.2478ZM120.013 32.2478C120.911 29.167 123.8 26.6846 126.431 26.6846C129.062 26.6846 130.51 29.167 129.612 32.2478C128.715 35.3301 125.92 37.7369 123.301 37.8125H123.084C120.505 37.7369 119.126 35.2845 120.013 32.2478ZM150.951 36.8463C150.466 37.9749 146.677 37.8053 145.727 37.8196L136.392 37.8125C137.65 36.1382 138.6 34.254 139.198 32.2478C139.258 32.0464 139.312 31.846 139.361 31.6465C140.365 33.0715 142.493 34.3583 146.632 35.1748C150.577 35.9315 151.297 35.702 150.951 36.8463ZM160.445 33.8054C159.627 30.6305 156.082 29.385 151.114 28.7837C149.036 28.5357 147.866 28.4374 148.128 27.5425C148.328 26.8457 149.37 26.6989 151.607 26.6989H162.521L160.445 33.8054ZM170.037 33.8367C170.037 33.7726 170.972 30.6077 172.115 26.6889H178.206L179.201 36.815C169.17 38.9411 168.921 38.3682 170.037 33.8367Z" fill="white"/>
<path d="M1.48182 34.0461L11.1566 0H26.0035L23.0013 10.555C22.971 10.6167 22.9452 10.6805 22.9242 10.7459L15.041 38.6175H22.3988C19.9885 44.7431 17.583 50.8706 15.1824 57C1.6103 56.8461 -2.19707 46.9509 1.13491 35.2431L1.48182 34.0461ZM15.2366 57L33.1314 30.78H25.5395L32.1449 13.985C43.4828 15.1905 48.7977 24.2663 45.6727 35.2402C42.3179 47.0478 28.7373 57 15.5121 57H15.2366Z" fill="url(#paint0_linear_12_805)"/>
</g>
<defs>
<linearGradient id="paint0_linear_12_805" x1="2864.95" y1="741" x2="1008.16" y2="7205.55" gradientUnits="userSpaceOnUse">
<stop stop-color="#EF7829"/>
<stop offset="0.28" stop-color="#F0692A"/>
<stop offset="0.63" stop-color="#F15E2C"/>
<stop offset="1" stop-color="#F15A2C"/>
</linearGradient>
<clipPath id="clip0_12_805">
<rect width="207" height="57" fill="white"/>
</clipPath>
</defs>
</svg>
