<svg width="24" height="24" viewBox="0 0 24 24" fill="none" xmlns="http://www.w3.org/2000/svg">
<path d="M4.73801 3.11748C3.82205 3.66434 2.01729 5.7493 2 6.29606V7.20126C2 8.34865 3.0666 9.35699 4.0348 9.35699C5.19732 9.35699 6.16609 8.388 6.16628 7.23803C6.16628 8.3879 7.10181 9.35699 8.26462 9.35699C9.42734 9.35699 10.3329 8.388 10.3329 7.23803C10.3329 8.3879 11.3273 9.35699 12.4898 9.35699H12.5107C13.6732 9.35699 14.6686 8.388 14.6686 7.23803C14.6686 8.3879 15.5737 9.35699 16.7362 9.35699C17.8988 9.35699 18.8343 8.388 18.8343 7.23803C18.8343 8.3879 19.8031 9.35699 20.9656 9.35699C21.9334 9.35699 23 8.34875 23 7.20126V6.29606C22.982 5.7493 21.1774 3.66434 20.2618 3.11748C17.4153 3.01691 15.4407 2.99962 12.4993 3.00001C9.55888 3.0002 5.54798 3.04633 4.73782 3.11748H4.73801ZM10.3182 8.81663C10.207 9.01148 10.0693 9.18976 9.90906 9.34629C9.45419 9.79491 8.84231 10.046 8.20516 10.0454C7.54175 10.0454 6.93665 9.77798 6.49785 9.3461C6.33924 9.18948 6.21862 9.02196 6.10749 8.82694V8.82732C5.99732 9.02272 5.8425 9.19005 5.68389 9.34687C5.22784 9.79541 4.61508 10.0463 3.97715 10.0457C3.89737 10.0457 3.81473 10.0237 3.7473 10.0008C3.65422 10.9797 3.61433 11.9147 3.60066 12.5976V12.6014C3.59876 12.9481 3.59733 13.2327 3.59553 13.6281C3.61357 15.6824 3.39323 20.2847 4.49591 21.4155C6.20456 21.8166 9.34869 21.999 12.5035 22H12.5038C15.6583 21.999 18.8027 21.8166 20.5113 21.4165C21.614 20.2855 21.3936 15.6831 21.4117 13.6295C21.4101 13.2341 21.4085 12.9493 21.4067 12.6028V12.599C21.3924 11.9169 21.353 10.9816 21.2594 10.0029C21.192 10.0258 21.1087 10.0481 21.0286 10.0481C20.3906 10.0487 19.7777 9.79784 19.3214 9.34935C19.1623 9.19225 19.008 9.02492 18.8975 8.8298L18.8971 8.82914C18.7862 9.02397 18.6655 9.19177 18.5064 9.3483C18.0676 9.77998 17.4626 10.0474 16.7994 10.0474C16.1362 10.0474 15.5343 9.77998 15.0955 9.3483C14.9353 9.19164 14.7976 9.01338 14.6861 8.81863C14.5763 9.01328 14.4399 9.19156 14.281 9.3483C13.8247 9.7971 13.2116 10.0481 12.5733 10.0474C12.5501 10.0474 12.5267 10.0464 12.5039 10.0455H12.5032C12.4801 10.0464 12.457 10.0474 12.4338 10.0474C11.7703 10.0474 11.1652 9.77998 10.7263 9.3483C10.5673 9.19167 10.4308 9.01345 10.3208 8.81882L10.3182 8.81663ZM8.56475 11.0966L8.56456 11.0974H8.56646C9.26075 11.0989 9.8781 11.0974 10.6417 11.9362C11.2439 11.8729 11.8717 11.8411 12.5014 11.8421H12.5023C13.132 11.8412 13.7598 11.8736 14.362 11.9367C15.1266 11.0981 15.743 11.1 16.4372 11.0981H16.4391V11.0972C16.7678 11.0972 18.0794 11.0972 18.994 13.6796L19.9769 17.2229C20.7049 19.8588 19.7439 19.9237 18.5453 19.9256C16.7673 19.8597 15.7833 18.5609 15.7833 17.263C14.7994 17.4253 13.6511 17.5065 12.5033 17.5065H12.5028C11.3549 17.5065 10.207 17.4253 9.22323 17.263C9.22323 18.5609 8.23926 19.8588 6.46147 19.9256C5.26286 19.9237 4.30168 19.8588 5.02988 17.2238L6.01194 13.6806C6.92658 11.0981 8.23917 11.0981 8.56684 11.0981L8.56475 11.0966ZM12.5006 13.1261V13.1268C12.499 13.1284 10.6294 14.855 10.2933 15.4691L11.5176 15.4198V16.4933C11.5176 16.5436 12.009 16.5232 12.5006 16.5004H12.5013C12.993 16.5233 13.4843 16.5436 13.4843 16.4934V15.4199L14.7086 15.469C14.3725 14.8549 12.5013 13.1268 12.5013 13.1268V13.1262L12.5011 13.1264L12.5006 13.1261Z" fill="white" fill-opacity="0.4"/>
</svg>
