<svg width="270" height="55" viewBox="0 0 270 55" fill="none" xmlns="http://www.w3.org/2000/svg">
<path d="M71.5985 13.5886C71.5985 12.1935 72.6312 11.2448 74.2498 11.2448H81.9945C89.0134 11.2448 93.7858 15.1093 93.7858 20.7873C93.7858 26.3677 89.0553 30.5112 81.9945 30.5112H80.92C78.2129 30.5112 76.8174 31.9063 76.8174 34.1524V40.514C76.8174 42.3137 75.7848 43.4437 74.208 43.4437C72.6312 43.4437 71.5985 42.3137 71.5985 40.514V13.5886ZM76.8174 21.6523C76.8174 24.4843 78.2547 25.8376 81.0037 25.8376H81.6735C85.5388 25.8376 88.3855 24.2611 88.3855 20.8013C88.3855 17.3414 85.5528 15.765 81.6735 15.765H81.0177C78.2687 15.765 76.8314 17.1182 76.8314 19.9503V21.6523H76.8174ZM93.7997 40.9604C93.7997 42.4392 94.8324 43.4298 96.4092 43.4298C97.4418 43.4298 98.3907 42.7601 98.9349 41.365L99.8838 38.8399C100.651 36.817 102.005 35.8683 103.484 35.8683H112.038C113.517 35.8683 114.871 36.817 115.638 38.8399L116.587 41.365C117.131 42.7601 118.066 43.4298 119.113 43.4298C120.69 43.4298 121.722 42.4392 121.722 40.9604C121.722 40.5559 121.638 40.0536 121.457 39.5653L111.243 13.0027C110.615 11.3844 109.177 10.5752 107.782 10.5752C106.386 10.5752 104.949 11.3844 104.321 13.0027L94.1067 39.5653C93.8835 40.0676 93.7997 40.5559 93.7997 40.9604ZM103.749 28.8928C103.749 28.4046 103.889 27.9442 104.112 27.2745L106.052 21.9173C106.414 20.885 107.042 20.3827 107.768 20.3827C108.494 20.3827 109.122 20.871 109.484 21.9173L111.424 27.2745C111.647 27.9442 111.787 28.4046 111.787 28.8928C111.787 30.2461 111.019 31.1948 108.996 31.1948H106.568C104.517 31.1948 103.749 30.2461 103.749 28.8928ZM120.006 13.6863C120.006 12.2493 121.038 11.2588 122.713 11.2588H143.421C145.082 11.2588 146.128 12.2493 146.128 13.6863C146.128 15.1232 145.096 16.1137 143.421 16.1137H139.96C137.211 16.1137 135.732 17.5088 135.732 20.7036V40.4722C135.732 42.3137 134.7 43.4437 133.081 43.4437C131.462 43.4437 130.43 42.3137 130.43 40.4722V20.7036C130.43 17.5088 128.95 16.1137 126.201 16.1137H122.741C121.038 16.1137 120.006 15.1232 120.006 13.6863ZM150.984 40.514C150.984 42.3137 152.017 43.4437 153.594 43.4437C155.171 43.4437 156.203 42.3137 156.203 40.514V33.3572C156.203 31.3343 157.375 30.4693 158.813 30.4693H159.175C160.124 30.4693 161.073 31.0552 161.645 31.9063L168.483 41.951C169.111 42.8996 169.92 43.4298 170.953 43.4298C172.306 43.4298 173.381 42.2997 173.381 40.9604C173.381 40.4164 173.199 39.8304 172.795 39.2445L168.246 32.8549C167.701 32.0876 167.478 31.4598 167.478 30.9157C167.478 29.7857 168.469 28.9765 169.641 28.1255C171.762 26.5491 174.051 24.4843 174.051 20.5223C174.051 14.9837 169.725 11.2448 162.608 11.2448H153.552C151.933 11.2448 150.942 12.1935 150.942 13.5886V40.514H150.984ZM156.203 21.2477V19.8945C156.203 16.9647 157.738 15.751 160.068 15.751H162.315C166.18 15.751 168.664 17.188 168.664 20.5223C168.664 23.8565 166.055 25.3772 162.176 25.3772H160.055C157.738 25.3911 156.203 24.1774 156.203 21.2477ZM180.749 40.4164V13.5886C180.749 12.1935 181.739 11.2448 183.358 11.2448H200.382C202.001 11.2448 202.992 12.1935 202.992 13.5886C202.992 14.9837 202.001 15.9324 200.382 15.9324H189.624C187.503 15.9324 185.981 17.188 185.981 19.5736V20.5641C185.981 22.9497 187.516 24.2053 189.624 24.2053H197.954C199.573 24.2053 200.564 25.154 200.564 26.5491C200.564 27.9442 199.573 28.8928 197.954 28.8928H189.944C187.823 28.8928 185.981 30.2042 185.981 32.8549V34.1105C185.981 36.7612 187.823 38.0726 189.944 38.0726H200.396C202.015 38.0726 203.006 39.0213 203.006 40.4164C203.006 41.8115 202.015 42.7601 200.396 42.7601H183.372C181.739 42.7601 180.749 41.8115 180.749 40.4164ZM206.09 27.0095C206.09 17.2856 213.388 10.5752 221.942 10.5752C230.496 10.5752 237.794 17.2856 237.794 27.0095C237.794 36.7333 230.496 43.4437 221.942 43.4437C213.388 43.4437 206.09 36.7333 206.09 27.0095ZM212.034 27.0095C212.034 33.8454 216.081 38.2121 221.942 38.2121C227.788 38.2121 231.849 33.8454 231.849 27.0095C231.849 20.1177 227.802 15.8068 221.942 15.8068C216.095 15.7929 212.034 20.1177 212.034 27.0095ZM244.045 40.514C244.045 42.3137 245.078 43.4437 246.655 43.4437C248.231 43.4437 249.264 42.3137 249.264 40.514V26.7444C249.264 25.0842 250.255 24.2751 251.287 24.2751C252.097 24.2751 252.767 24.7215 253.269 25.5307L261.907 39.9839C263.079 41.9649 264.153 43.4437 266.358 43.4437C268.479 43.4437 270 41.9091 270 39.4398V13.5049C270 11.7052 268.967 10.5752 267.391 10.5752C265.814 10.5752 264.781 11.7052 264.781 13.5049V27.2745C264.781 28.9347 263.79 29.7438 262.758 29.7438C261.948 29.7438 261.265 29.2974 260.776 28.4883L252.139 14.035C250.966 12.054 249.892 10.5752 247.687 10.5752C245.566 10.5752 244.045 12.1098 244.045 14.5791V40.514Z" fill="white"/>
<path d="M49.518 16.3072C49.5085 9.37625 44.1476 3.69579 37.8579 1.64617C30.0472 -0.899028 19.7458 -0.530116 12.2875 3.01326C3.24794 7.30853 0.408288 16.7173 0.302468 26.101C0.215617 33.816 0.980311 54.1358 12.3629 54.2806C20.8204 54.3886 22.0798 43.4152 25.9931 38.1303C28.7774 34.3703 32.3622 33.3083 36.7752 32.2086C44.3598 30.3183 49.5289 24.2911 49.518 16.3072Z" fill="white"/>
</svg>
